<svg width="11" height="10" viewBox="0 0 11 10" fill="none" xmlns="http://www.w3.org/2000/svg">
<path d="M10.3245 5.42451L6.7245 9.02452C6.61178 9.13723 6.45891 9.20056 6.2995 9.20056C6.14009 9.20056 5.98722 9.13723 5.8745 9.02452C5.76178 8.9118 5.69846 8.75892 5.69846 8.59951C5.69846 8.44011 5.76178 8.28723 5.8745 8.17451L8.45 5.60001H1.1C0.94087 5.60001 0.788258 5.5368 0.675736 5.42428C0.563214 5.31176 0.5 5.15914 0.5 5.00001C0.5 4.84088 0.563214 4.68827 0.675736 4.57575C0.788258 4.46323 0.94087 4.40001 1.1 4.40001H8.45L5.8755 1.82401C5.76278 1.7113 5.69946 1.55842 5.69946 1.39901C5.69946 1.23961 5.76278 1.08673 5.8755 0.974014C5.98822 0.861297 6.14109 0.797974 6.3005 0.797974C6.45991 0.797974 6.61278 0.861297 6.7255 0.974014L10.3255 4.57401C10.3814 4.62983 10.4258 4.69615 10.4561 4.76916C10.4863 4.84218 10.5018 4.92044 10.5017 4.99947C10.5016 5.0785 10.4859 5.15673 10.4555 5.22967C10.4251 5.30261 10.3806 5.36883 10.3245 5.42451Z" fill="white"/>
</svg>
